:FULLY-SPECIFIED
:FORCE-ALL-JOINTS-BE-3DOF
:DEGREES
2956
root -6.02541 13.1201 -28.7236 1243.34 -66.8724 -160.259
lfemur -68.2227 39.7003 -6.91938
ltibia 77.1242 0 0
lfoot -6.48994 -2.90126 0
ltoes -35.0804 0 0
rfemur -34.5481 -18.034 22.6006
rtibia 91.0511 0 0
rfoot -40.3464 -31.7168 0
rtoes -12.8638 0 0
lowerback 16.4481 5.27999 1.30711
upperback -4.44151 7.58817 1.47335
thorax -14.2848 3.4576 -1.23407
lowerneck -3.0137 9.63806 1.53342
upperneck 8.09324 12.6596 1.43597
head 3.11967 6.35756 0.663408
lclavicle -3.90129e-14 -2.51529e-14 0
lhumerus 5.86782 15.4006 81.2035
lradius 89.9116 0 0
lwrist -14.9588 0 0
lhand -39.2125 391.508 0
lfingers 7.12502 0 0
lthumb -11.8891 -661.573 0
rclavicle -2.2897e-14 -1.05483e-14 0
rhumerus -55.8736 50.6012 -108.277
rradius 111.136 0 0
rwrist -78.9523 0 0
rhand 6.6231 -385.586 0
rfingers 7.12502 0 0
rthumb 27.7766 308.543 0
2957
root -6.01125 13.1197 -28.7231 1243.44 -67.0645 -160.25
lfemur -68.2628 39.2637 -6.95759
ltibia 77.0425 0 0
lfoot -5.85382 -2.68306 0
ltoes -34.7668 0 0
rfemur -34.5595 -18.0003 22.6406
rtibia 91.1083 0 0
rfoot -40.3128 -31.8332 0
rtoes -12.8607 0 0
lowerback 16.4794 5.21258 1.27436
upperback -4.41958 7.49056 1.47694
thorax -14.2838 3.4156 -1.18666
lowerneck -3.03087 9.65324 1.52379
upperneck 7.92965 12.6929 1.31392
head 3.07488 6.37059 0.623052
lclavicle -3.93544e-14 -2.57937e-14 0
lhumerus 5.88052 15.4896 81.0967
lradius 89.7981 0 0
lwrist -14.3222 0 0
lhand -39.1372 391.532 0
lfingers 7.12502 0 0
lthumb -11.7665 -661.468 0
rclavicle -2.51941e-14 -1.16337e-14 0
rhumerus -55.8416 50.5937 -108.243
rradius 110.588 0 0
rwrist -78.8902 0 0
rhand 5.99268 -385.672 0
rfingers 7.12502 0 0
rthumb 27.538 308.587 0
2958
root -5.99713 13.1227 -28.7251 1243.62 -67.1371 -160.424
lfemur -68.3013 38.8447 -6.99426
ltibia 76.9715 0 0
lfoot -5.14755 -2.4408 0
ltoes -34.4574 0 0
rfemur -34.5924 -17.9026 22.7564
rtibia 91.1626 0 0
rfoot -40.2836 -31.9342 0
rtoes -12.8186 0 0
lowerback 16.578 5.1983 1.15298
upperback -4.36371 7.44897 1.50703
thorax -14.299 3.40775 -1.08187
lowerneck -3.06552 9.69301 1.54132
upperneck 7.81088 12.7632 1.10719
head 3.05721 6.39959 0.556967
lclavicle -3.96673e-14 -2.63807e-14 0
lhumerus 5.89089 15.5624 81.0094
lradius 89.6933 0 0
lwrist -13.6749 0 0
lhand -39.0688 391.553 0
lfingers 7.12502 0 0
lthumb -11.6152 -661.337 0
rclavicle -2.69041e-14 -1.24417e-14 0
rhumerus -55.8306 50.5911 -108.231
rradius 109.995 0 0
rwrist -78.8687 0 0
rhand 5.25791 -385.774 0
rfingers 7.12502 0 0
rthumb 27.3579 308.62 0
2959
root -5.9724 13.12 -28.7311 1243.77 -67.3915 -160.476
lfemur -68.3377 38.4484 -7.02895
ltibia 76.9132 0 0
lfoot -4.38515 -2.17928 0
ltoes -34.1568 0 0
rfemur -34.6452 -17.7463 22.9417
rtibia 91.2133 0 0
rfoot -40.2595 -32.0173 0
rtoes -12.6974 0 0
lowerback 16.6856 5.14626 1.02155
upperback -4.32295 7.3504 1.50064
thorax -14.3333 3.37199 -0.997305
lowerneck -3.0728 9.69113 1.47583
upperneck 7.55018 12.7739 1.03225
head 2.96999 6.40224 0.534409
lclavicle -3.99463e-14 -2.69043e-14 0
lhumerus 5.89867 15.6169 80.944
lradius 89.5993 0 0
lwrist -13.024 0 0
lhand -39.0082 391.572 0
lfingers 7.12502 0 0
lthumb -11.4382 -661.184 0
rclavicle -2.79711e-14 -1.29459e-14 0
rhumerus -55.5893 50.442 -108.053
rradius 109.365 0 0
rwrist -78.825 0 0
rhand 4.43184 -385.887 0
rfingers 7.12502 0 0
rthumb 27.2442 308.641 0
2960
root -5.94928 13.1271 -28.7362 1244.06 -67.5794 -160.708
lfemur -68.3716 38.0799 -7.0612
ltibia 76.8694 0 0
lfoot -3.58066 -1.90332 0
ltoes -33.8694 0 0
rfemur -34.7159 -17.5367 23.1902
rtibia 91.2595 0 0
rfoot -40.2415 -32.0797 0
rtoes -12.5046 0 0
lowerback 16.7665 5.14196 0.909519
upperback -4.26015 7.31648 1.47831
thorax -14.3196 3.36498 -0.955387
lowerneck -3.05061 9.64217 1.42565
upperneck 7.26565 12.7275 0.86386
head 2.87741 6.37404 0.476391
lclavicle -4.01863e-14 -2.73546e-14 0
lhumerus 5.90354 15.6511 80.903
lradius 89.518 0 0
lwrist -12.3767 0 0
lhand -38.9565 391.588 0
lfingers 7.12502 0 0
lthumb -11.2384 -661.011 0
rclavicle -2.83392e-14 -1.31198e-14 0
rhumerus -54.8929 50.0116 -107.541
rradius 108.704 0 0
rwrist -78.6982 0 0
rhand 3.52751 -386.012 0
rfingers 7.12502 0 0
rthumb 27.2045 308.648 0
2961
root -5.9216 13.1378 -28.7479 1244.26 -67.8229 -160.87
lfemur -68.4024 37.7441 -7.09059
ltibia 76.8417 0 0
lfoot -2.7481 -1.61774 0
ltoes -33.5993 0 0
rfemur -34.8028 -17.2791 23.4955
rtibia 91.3007 0 0
rfoot -40.2301 -32.1191 0
rtoes -12.2477 0 0
lowerback 16.8603 5.12607 0.76568
upperback -4.17683 7.25905 1.45496
thorax -14.2935 3.35008 -0.890414
lowerneck -3.04463 9.60668 1.31749
upperneck 6.98882 12.692 0.825483
head 2.77713 6.3542 0.468704
lclavicle -4.0382e-14 -2.77218e-14 0
lhumerus 5.90523 15.663 80.8888
lradius 89.4514 0 0
lwrist -11.7401 0 0
lhand -38.9145 391.601 0
lfingers 7.12502 0 0
lthumb -11.0184 -660.822 0
rclavicle -2.83167e-14 -1.29512e-14 0
rhumerus -53.7827 49.3255 -106.724
rradius 108.02 0 0
rwrist -78.4946 0 0
rhand 2.55797 -386.146 0
rfingers 7.12502 0 0
rthumb 27.1565 308.62 0
2962
root -5.89301 13.1475 -28.7611 1244.44 -68.0127 -160.945
lfemur -68.4298 37.4461 -7.11667
ltibia 76.8321 0 0
lfoot -1.9015 -1.32735 0
ltoes -33.3511 0 0
rfemur -34.9041 -16.979 23.8514
rtibia 91.336 0 0
rfoot -40.2261 -32.1328 0
rtoes -11.9343 0 0
lowerback 16.8535 5.11722 0.659134
upperback -4.10163 7.21809 1.43621
thorax -14.2116 3.34184 -0.836214
lowerneck -3.02829 9.56378 1.36404
upperneck 6.7351 12.6491 0.614339
head 2.70682 6.32889 0.385329
lclavicle -4.05283e-14 -2.79962e-14 0
lhumerus 5.93475 15.6479 80.8676
lradius 89.4014 0 0
lwrist -11.1214 0 0
lhand -38.8833 391.611 0
lfingers 7.12502 0 0
lthumb -10.7813 -660.617 0
rclavicle -2.82519e-14 -1.24656e-14 0
rhumerus -52.3003 48.4094 -105.633
rradius 107.318 0 0
rwrist -78.2206 0 0
rhand 1.53625 -386.286 0
rfingers 7.12502 0 0
rthumb 27.017 308.54 0
2963
root -5.86017 13.1626 -28.7791 1244.67 -68.1953 -161.067
lfemur -68.4532 37.191 -7.13899
ltibia 76.6436 0 0
lfoot -1.05491 -1.03695 0
ltoes -33.1292 0 0
rfemur -35.0179 -16.6415 24.2515
rtibia 91.3647 0 0
rfoot -40.1885 -32.1259 0
rtoes -11.5719 0 0
lowerback 16.8677 5.17811 0.550954
upperback -4.03616 7.27021 1.40693
thorax -14.1529 3.37509 -0.822038
lowerneck -3.02593 9.46037 1.24833
upperneck 6.51787 12.5224 0.563636
head 2.62806 6.26295 0.374819
lclavicle -4.06198e-14 -2.8168e-14 0
lhumerus 6.01925 15.6048 80.807
lradius 89.3699 0 0
lwrist -10.5277 0 0
lhand -38.8639 391.617 0
lfingers 7.12502 0 0
lthumb -10.5299 -660.4 0
rclavicle -2.81487e-14 -1.16932e-14 0
rhumerus -50.4869 47.2887 -104.298
rradius 106.606 0 0
rwrist -77.8828 0 0
rhand 0.475398 -386.432 0
rfingers 7.12502 0 0
rthumb 26.7925 308.41 0
2964
root -5.82529 13.1755 -28.7972 1244.72 -68.4055 -160.971
lfemur -68.4722 36.9839 -7.15712
ltibia 76.0987 0 0
lfoot -0.222355 -0.751366 0
ltoes -32.9377 0 0
rfemur -35.1426 -16.2721 24.6895
rtibia 91.3862 0 0
rfoot -40.0792 -32.1057 0
rtoes -11.168 0 0
lowerback 16.8542 5.17723 0.485492
upperback -3.98601 7.25078 1.39404
thorax -14.0922 3.37275 -0.79074
lowerneck -2.98609 9.40626 1.25389
upperneck 6.31725 12.4591 0.443997
head 2.56205 6.22923 0.325873
lclavicle -4.06515e-14 -2.82274e-14 0
lhumerus 6.1526 15.5368 80.7113
lradius 89.359 0 0
lwrist -9.96609 0 0
lhand -38.8572 391.619 0
lfingers 7.12502 0 0
lthumb -10.2671 -660.173 0
rclavicle -2.80113e-14 -1.06641e-14 0
rhumerus -48.3838 45.9891 -102.751
rradius 105.891 0 0
rwrist -77.4873 0 0
rhand -0.611537 -386.582 0
rfingers 7.12502 0 0
rthumb 26.4896 308.235 0
2965
root -5.78594 13.1934 -28.8186 1244.83 -68.7564 -160.961
lfemur -68.4864 36.8296 -7.17062
ltibia 75.2285 0 0
lfoot 0.582141 -0.475409 0
ltoes -32.7813 0 0
rfemur -35.2762 -15.876 25.1591
rtibia 91.3996 0 0
rfoot -39.9033 -32.0733 0
rtoes -10.7303 0 0
lowerback 16.8912 5.16265 0.408471
upperback -3.93447 7.20666 1.34594
thorax -14.0566 3.35708 -0.789733
lowerneck -2.95571 9.33867 1.21247
upperneck 6.12591 12.3769 0.371025
head 2.49431 6.18644 0.298652
lclavicle -4.05926e-14 -2.81147e-14 0
lhumerus 6.32871 15.4469 80.585
lradius 89.3372 0 0
lwrist -9.44382 0 0
lhand -38.8163 391.618 0
lfingers 7.12502 0 0
lthumb -9.99562 -659.938 0
rclavicle -2.78437e-14 -9.40861e-15 0
rhumerus -46.0326 44.5361 -101.02
rradius 105.179 0 0
rwrist -77.0407 0 0
rhand -1.71152 -386.733 0
rfingers 7.12502 0 0
rthumb 26.1147 308.018 0
2966
root -5.742 13.2148 -28.8444 1244.92 -69.1713 -160.891
lfemur -68.4953 36.7334 -7.17904
ltibia 74.0639 0 0
lfoot 1.34454 -0.213892 0
ltoes -32.6641 0 0
rfemur -35.417 -15.4586 25.6539
rtibia 91.4042 0 0
rfoot -39.6659 -32.0296 0
rtoes -10.2661 0 0
lowerback 16.9285 5.20442 0.388066
upperback -3.90552 7.24817 1.27072
thorax -14.0366 3.37419 -0.875625
lowerneck -2.9401 9.17958 1.12131
upperneck 5.95481 12.1731 0.321397
head 2.43062 6.08266 0.283912
lclavicle -4.04227e-14 -2.77893e-14 0
lhumerus 6.54148 15.3384 80.4324
lradius 89.2741 0 0
lwrist -8.96801 0 0
lhand -38.6975 391.616 0
lfingers 7.12502 0 0
lthumb -9.71846 -659.699 0
rclavicle -2.76498e-14 -7.95685e-15 0
rhumerus -43.4745 42.9552 -99.1379
rradius 104.478 0 0
rwrist -76.5493 0 0
rhand -2.81149 -386.885 0
rfingers 7.12502 0 0
rthumb 25.6744 307.764 0
2967
root -5.6961 13.2388 -28.8736 1244.83 -69.6151 -160.662
lfemur -68.4983 36.7002 -7.18195
ltibia 72.6359 0 0
lfoot 2.05081 0.0283721 0
ltoes -32.5906 0 0
rfemur -35.5632 -15.0252 26.1677
rtibia 91.311 0 0
rfoot -39.3722 -31.9755 0
rtoes -9.78312 0 0
lowerback 16.9508 5.20581 0.366696
upperback -3.86173 7.23663 1.21396
thorax -13.9928 3.36862 -0.923005
lowerneck -2.87829 9.04893 1.06107
upperneck 5.72973 12.0055 0.27624
head 2.34281 5.99816 0.262888
lclavicle -4.01518e-14 -2.72707e-14 0
lhumerus 6.78478 15.2143 80.2578
lradius 89.1727 0 0
lwrist -8.54579 0 0
lhand -38.5065 391.613 0
lfingers 7.12502 0 0
lthumb -9.43843 -659.457 0
rclavicle -2.74338e-14 -6.33902e-15 0
rhumerus -40.7509 41.2721 -97.1335
rradius 103.793 0 0
rwrist -76.0196 0 0
rhand -3.89843 -387.035 0
rfingers 7.12502 0 0
rthumb 25.1752 307.475 0
2968
root -5.64474 13.2679 -28.9065 1244.86 -70.1671 -160.52
lfemur -68.4767 36.595 -7.21771
ltibia 70.9755 0 0
lfoot 2.68693 0.24657 0
ltoes -32.5651 0 0
rfemur -35.713 -14.5812 26.6941
rtibia 91.0426 0 0
rfoot -39.0272 -31.9119 0
rtoes -9.28882 0 0
lowerback 16.9891 5.2331 0.325741
upperback -3.84495 7.25146 1.11472
thorax -13.9868 3.37359 -1.01728
lowerneck -2.84816 8.88758 0.970962
upperneck 5.55918 11.7954 0.272876
head 2.27421 5.89269 0.261756
lclavicle -3.97901e-14 -2.65782e-14 0
lhumerus 7.05251 15.0777 80.0658
lradius 89.0363 0 0
lwrist -8.18432 0 0
lhand -38.2492 391.609 0
lfingers 7.12502 0 0
lthumb -9.15839 -659.215 0
rclavicle -2.71997e-14 -4.58533e-15 0
rhumerus -37.9032 39.5122 -95.0378
rradius 103.132 0 0
rwrist -75.4579 0 0
rhand -4.95928 -387.181 0
rfingers 7.12502 0 0
rthumb 24.6238 307.156 0
2969
root -5.59061 13.3 -28.944 1244.78 -70.7576 -160.329
lfemur -68.4139 36.2891 -7.32162
ltibia 69.1137 0 0
lfoot 3.23885 0.435889 0
ltoes -32.5473 0 0
rfemur -35.8646 -14.1318 27.2269
rtibia 90.6155 0 0
rfoot -38.6362 -31.8399 0
rtoes -8.79076 0 0
lowerback 17.0449 5.23946 0.201684
upperback -3.77928 7.22422 1.06452
thorax -13.952 3.3692 -0.998491
lowerneck -2.80298 8.67646 1.06303
upperneck 5.3307 11.5297 -0.0770927
head 2.21849 5.75417 0.12391
lclavicle -3.93476e-14 -2.57311e-14 0
lhumerus 7.33856 14.9317 79.8605
lradius 88.8681 0 0
lwrist -7.89073 0 0
lhand -37.9313 391.604 0
lfingers 7.12502 0 0
lthumb -8.88123 -658.976 0
rclavicle -2.69514e-14 -2.72596e-15 0
rhumerus -34.9727 37.7012 -92.8813
rradius 102.502 0 0
rwrist -74.8706 0 0
rhand -5.981 -387.321 0
rfingers 7.12502 0 0
rthumb 24.0266 306.811 0
